<!-- Icons -->
<svg xmlns="http://www.w3.org/2000/svg">
   <symbol id="fitdash" viewBox="0 0 24 24">
        <polyline points="3 7 5 7 21 7"/>
        <path class="poubelle" d="M18.5,7l-1,14H6.5L5.5,7M8,7l.5-3.5h7L16,7"/>
        <line class="droite" x1="13.5" y1="16.5" x2="13.5" y2="11.5"/>
        <line class="gauche" x1="10.5" y1="16.5" x2="10.5" y2="11.5"/>
    </symbol>

    <symbol id="trash" viewBox="0 0 24 24">
        <polyline points="3 7 5 7 21 7"/>
        <path d="M18.5,7l-1,14H6.5L5.5,7M8,7l.5-3.5h7L16,7"/>
        <line x1="13.5" y1="16.5" x2="13.5" y2="11.5"/>
        <line x1="10.5" y1="16.5" x2="10.5" y2="11.5"/>
    </symbol>

    <symbol id="edit" viewBox="0 0 24 24">
            <polygon points="4 18 5 13.5 16.5 2 17.5 2 20 4.5 20 5.5 8.5 17 4 18"/>
            <line x1="14.5" y1="3.5" x2="18.5" y2="7.5"/>
            <line x1="3.5" y1="21.5" x2="20.5" y2="21.5"/>
    </symbol>
</svg>